<mxfile host="app.diagrams.net" agent="Mozilla/5.0 (Windows NT 10.0; Win64; x64) AppleWebKit/537.36 (KHTML, like Gecko) Chrome/131.0.0.0 Safari/537.36" version="25.0.3">
  <diagram name="หน้า-1" id="cCKYHLLacqhvbvAaKr4I">
    <mxGraphModel dx="5101" dy="1487" grid="1" gridSize="10" guides="1" tooltips="1" connect="1" arrows="1" fold="1" page="1" pageScale="1" pageWidth="827" pageHeight="1169" math="0" shadow="0">
      <root>
        <mxCell id="0" />
        <mxCell id="1" parent="0" />
        <mxCell id="J86P1lJ72b_8my5_uYd4-3" value="" style="edgeStyle=orthogonalEdgeStyle;rounded=0;orthogonalLoop=1;jettySize=auto;html=1;" edge="1" parent="1" source="J86P1lJ72b_8my5_uYd4-1" target="J86P1lJ72b_8my5_uYd4-2">
          <mxGeometry relative="1" as="geometry" />
        </mxCell>
        <mxCell id="J86P1lJ72b_8my5_uYd4-1" value="start" style="ellipse;whiteSpace=wrap;html=1;" vertex="1" parent="1">
          <mxGeometry x="350" y="90" width="120" height="80" as="geometry" />
        </mxCell>
        <mxCell id="J86P1lJ72b_8my5_uYd4-5" value="" style="edgeStyle=orthogonalEdgeStyle;rounded=0;orthogonalLoop=1;jettySize=auto;html=1;" edge="1" parent="1" source="J86P1lJ72b_8my5_uYd4-2" target="J86P1lJ72b_8my5_uYd4-4">
          <mxGeometry relative="1" as="geometry" />
        </mxCell>
        <mxCell id="J86P1lJ72b_8my5_uYd4-2" value="สร้างตัวแปร number" style="whiteSpace=wrap;html=1;" vertex="1" parent="1">
          <mxGeometry x="350" y="260" width="120" height="60" as="geometry" />
        </mxCell>
        <mxCell id="J86P1lJ72b_8my5_uYd4-7" value="" style="edgeStyle=orthogonalEdgeStyle;rounded=0;orthogonalLoop=1;jettySize=auto;html=1;" edge="1" parent="1" source="J86P1lJ72b_8my5_uYd4-4" target="J86P1lJ72b_8my5_uYd4-6">
          <mxGeometry relative="1" as="geometry" />
        </mxCell>
        <mxCell id="J86P1lJ72b_8my5_uYd4-4" value="แสดงคำว่า&amp;nbsp;Enter new element of Array :" style="shape=parallelogram;perimeter=parallelogramPerimeter;whiteSpace=wrap;html=1;fixedSize=1;" vertex="1" parent="1">
          <mxGeometry x="280" y="400" width="260" height="60" as="geometry" />
        </mxCell>
        <mxCell id="J86P1lJ72b_8my5_uYd4-9" value="" style="edgeStyle=orthogonalEdgeStyle;rounded=0;orthogonalLoop=1;jettySize=auto;html=1;" edge="1" parent="1" source="J86P1lJ72b_8my5_uYd4-6" target="J86P1lJ72b_8my5_uYd4-8">
          <mxGeometry relative="1" as="geometry" />
        </mxCell>
        <mxCell id="J86P1lJ72b_8my5_uYd4-6" value="รับค่าจากผู้ใช้" style="whiteSpace=wrap;html=1;" vertex="1" parent="1">
          <mxGeometry x="350" y="540" width="120" height="60" as="geometry" />
        </mxCell>
        <mxCell id="J86P1lJ72b_8my5_uYd4-11" value="" style="edgeStyle=orthogonalEdgeStyle;rounded=0;orthogonalLoop=1;jettySize=auto;html=1;" edge="1" parent="1" source="J86P1lJ72b_8my5_uYd4-8" target="J86P1lJ72b_8my5_uYd4-10">
          <mxGeometry relative="1" as="geometry" />
        </mxCell>
        <mxCell id="J86P1lJ72b_8my5_uYd4-8" value="int array [ number ]" style="whiteSpace=wrap;html=1;" vertex="1" parent="1">
          <mxGeometry x="350" y="680" width="120" height="60" as="geometry" />
        </mxCell>
        <mxCell id="J86P1lJ72b_8my5_uYd4-13" value="" style="edgeStyle=orthogonalEdgeStyle;rounded=0;orthogonalLoop=1;jettySize=auto;html=1;" edge="1" parent="1" source="J86P1lJ72b_8my5_uYd4-10" target="J86P1lJ72b_8my5_uYd4-12">
          <mxGeometry relative="1" as="geometry" />
        </mxCell>
        <mxCell id="J86P1lJ72b_8my5_uYd4-10" value="int i = 0" style="whiteSpace=wrap;html=1;" vertex="1" parent="1">
          <mxGeometry x="350" y="820" width="120" height="60" as="geometry" />
        </mxCell>
        <mxCell id="J86P1lJ72b_8my5_uYd4-15" value="" style="edgeStyle=orthogonalEdgeStyle;rounded=0;orthogonalLoop=1;jettySize=auto;html=1;" edge="1" parent="1" source="J86P1lJ72b_8my5_uYd4-12" target="J86P1lJ72b_8my5_uYd4-14">
          <mxGeometry relative="1" as="geometry" />
        </mxCell>
        <mxCell id="J86P1lJ72b_8my5_uYd4-24" value="" style="edgeStyle=orthogonalEdgeStyle;rounded=0;orthogonalLoop=1;jettySize=auto;html=1;" edge="1" parent="1" source="J86P1lJ72b_8my5_uYd4-12" target="J86P1lJ72b_8my5_uYd4-23">
          <mxGeometry relative="1" as="geometry" />
        </mxCell>
        <mxCell id="J86P1lJ72b_8my5_uYd4-12" value="i &amp;lt; number ?" style="rhombus;whiteSpace=wrap;html=1;" vertex="1" parent="1">
          <mxGeometry x="350" y="950" width="120" height="100" as="geometry" />
        </mxCell>
        <mxCell id="J86P1lJ72b_8my5_uYd4-17" value="" style="edgeStyle=orthogonalEdgeStyle;rounded=0;orthogonalLoop=1;jettySize=auto;html=1;" edge="1" parent="1" source="J86P1lJ72b_8my5_uYd4-14" target="J86P1lJ72b_8my5_uYd4-16">
          <mxGeometry relative="1" as="geometry" />
        </mxCell>
        <mxCell id="J86P1lJ72b_8my5_uYd4-14" value="แสดงคำว่า Input" style="shape=parallelogram;perimeter=parallelogramPerimeter;whiteSpace=wrap;html=1;fixedSize=1;" vertex="1" parent="1">
          <mxGeometry x="350" y="1150" width="120" height="60" as="geometry" />
        </mxCell>
        <mxCell id="J86P1lJ72b_8my5_uYd4-19" value="" style="edgeStyle=orthogonalEdgeStyle;rounded=0;orthogonalLoop=1;jettySize=auto;html=1;" edge="1" parent="1" source="J86P1lJ72b_8my5_uYd4-16" target="J86P1lJ72b_8my5_uYd4-18">
          <mxGeometry relative="1" as="geometry" />
        </mxCell>
        <mxCell id="J86P1lJ72b_8my5_uYd4-16" value="รับค่าจากผู้ใช้" style="shape=parallelogram;perimeter=parallelogramPerimeter;whiteSpace=wrap;html=1;fixedSize=1;" vertex="1" parent="1">
          <mxGeometry x="350" y="1290" width="120" height="60" as="geometry" />
        </mxCell>
        <mxCell id="J86P1lJ72b_8my5_uYd4-18" value="i++" style="whiteSpace=wrap;html=1;" vertex="1" parent="1">
          <mxGeometry x="350" y="1430" width="120" height="60" as="geometry" />
        </mxCell>
        <mxCell id="J86P1lJ72b_8my5_uYd4-20" value="" style="shape=waypoint;sketch=0;fillStyle=solid;size=6;pointerEvents=1;points=[];fillColor=none;resizable=0;rotatable=0;perimeter=centerPerimeter;snapToPoint=1;" vertex="1" parent="1">
          <mxGeometry x="400" y="900" width="20" height="20" as="geometry" />
        </mxCell>
        <mxCell id="J86P1lJ72b_8my5_uYd4-21" style="edgeStyle=orthogonalEdgeStyle;rounded=0;orthogonalLoop=1;jettySize=auto;html=1;exitX=0.5;exitY=1;exitDx=0;exitDy=0;entryX=0.85;entryY=0.75;entryDx=0;entryDy=0;entryPerimeter=0;" edge="1" parent="1" source="J86P1lJ72b_8my5_uYd4-18" target="J86P1lJ72b_8my5_uYd4-20">
          <mxGeometry relative="1" as="geometry">
            <Array as="points">
              <mxPoint x="410" y="1530" />
              <mxPoint x="540" y="1530" />
              <mxPoint x="540" y="910" />
            </Array>
          </mxGeometry>
        </mxCell>
        <mxCell id="J86P1lJ72b_8my5_uYd4-22" value="T" style="text;html=1;align=center;verticalAlign=middle;resizable=0;points=[];autosize=1;strokeColor=none;fillColor=none;" vertex="1" parent="1">
          <mxGeometry x="415" y="1048" width="30" height="30" as="geometry" />
        </mxCell>
        <mxCell id="J86P1lJ72b_8my5_uYd4-26" value="" style="edgeStyle=orthogonalEdgeStyle;rounded=0;orthogonalLoop=1;jettySize=auto;html=1;" edge="1" parent="1" source="J86P1lJ72b_8my5_uYd4-23" target="J86P1lJ72b_8my5_uYd4-25">
          <mxGeometry relative="1" as="geometry" />
        </mxCell>
        <mxCell id="J86P1lJ72b_8my5_uYd4-23" value="แสดงคำว่า Array :" style="shape=parallelogram;perimeter=parallelogramPerimeter;whiteSpace=wrap;html=1;fixedSize=1;" vertex="1" parent="1">
          <mxGeometry x="150" y="970" width="120" height="60" as="geometry" />
        </mxCell>
        <mxCell id="J86P1lJ72b_8my5_uYd4-28" value="" style="edgeStyle=orthogonalEdgeStyle;rounded=0;orthogonalLoop=1;jettySize=auto;html=1;" edge="1" parent="1" source="J86P1lJ72b_8my5_uYd4-25" target="J86P1lJ72b_8my5_uYd4-27">
          <mxGeometry relative="1" as="geometry" />
        </mxCell>
        <mxCell id="J86P1lJ72b_8my5_uYd4-25" value="int i = 0" style="whiteSpace=wrap;html=1;" vertex="1" parent="1">
          <mxGeometry x="150" y="1110" width="120" height="60" as="geometry" />
        </mxCell>
        <mxCell id="J86P1lJ72b_8my5_uYd4-30" value="" style="edgeStyle=orthogonalEdgeStyle;rounded=0;orthogonalLoop=1;jettySize=auto;html=1;" edge="1" parent="1" source="J86P1lJ72b_8my5_uYd4-27" target="J86P1lJ72b_8my5_uYd4-29">
          <mxGeometry relative="1" as="geometry" />
        </mxCell>
        <mxCell id="J86P1lJ72b_8my5_uYd4-37" value="" style="edgeStyle=orthogonalEdgeStyle;rounded=0;orthogonalLoop=1;jettySize=auto;html=1;" edge="1" parent="1" source="J86P1lJ72b_8my5_uYd4-27" target="J86P1lJ72b_8my5_uYd4-36">
          <mxGeometry relative="1" as="geometry" />
        </mxCell>
        <mxCell id="J86P1lJ72b_8my5_uYd4-27" value="i &amp;lt; number ?" style="rhombus;whiteSpace=wrap;html=1;" vertex="1" parent="1">
          <mxGeometry x="155" y="1240" width="110" height="100" as="geometry" />
        </mxCell>
        <mxCell id="J86P1lJ72b_8my5_uYd4-34" value="" style="edgeStyle=orthogonalEdgeStyle;rounded=0;orthogonalLoop=1;jettySize=auto;html=1;" edge="1" parent="1" source="J86P1lJ72b_8my5_uYd4-29" target="J86P1lJ72b_8my5_uYd4-33">
          <mxGeometry relative="1" as="geometry" />
        </mxCell>
        <mxCell id="J86P1lJ72b_8my5_uYd4-29" value="แสดงตัวเลขใน array" style="shape=parallelogram;perimeter=parallelogramPerimeter;whiteSpace=wrap;html=1;fixedSize=1;" vertex="1" parent="1">
          <mxGeometry x="140" y="1440" width="140" height="60" as="geometry" />
        </mxCell>
        <mxCell id="J86P1lJ72b_8my5_uYd4-31" value="" style="shape=waypoint;sketch=0;fillStyle=solid;size=6;pointerEvents=1;points=[];fillColor=none;resizable=0;rotatable=0;perimeter=centerPerimeter;snapToPoint=1;" vertex="1" parent="1">
          <mxGeometry x="200" y="1190" width="20" height="20" as="geometry" />
        </mxCell>
        <mxCell id="J86P1lJ72b_8my5_uYd4-32" value="T" style="text;html=1;align=center;verticalAlign=middle;resizable=0;points=[];autosize=1;strokeColor=none;fillColor=none;" vertex="1" parent="1">
          <mxGeometry x="225" y="1348" width="30" height="30" as="geometry" />
        </mxCell>
        <mxCell id="J86P1lJ72b_8my5_uYd4-33" value="i++" style="whiteSpace=wrap;html=1;" vertex="1" parent="1">
          <mxGeometry x="150" y="1580" width="120" height="60" as="geometry" />
        </mxCell>
        <mxCell id="J86P1lJ72b_8my5_uYd4-35" style="edgeStyle=orthogonalEdgeStyle;rounded=0;orthogonalLoop=1;jettySize=auto;html=1;exitX=0.5;exitY=1;exitDx=0;exitDy=0;entryX=0.25;entryY=0.55;entryDx=0;entryDy=0;entryPerimeter=0;" edge="1" parent="1" source="J86P1lJ72b_8my5_uYd4-33" target="J86P1lJ72b_8my5_uYd4-31">
          <mxGeometry relative="1" as="geometry">
            <Array as="points">
              <mxPoint x="210" y="1680" />
              <mxPoint x="310" y="1680" />
              <mxPoint x="310" y="1200" />
            </Array>
          </mxGeometry>
        </mxCell>
        <mxCell id="J86P1lJ72b_8my5_uYd4-40" value="" style="edgeStyle=orthogonalEdgeStyle;rounded=0;orthogonalLoop=1;jettySize=auto;html=1;" edge="1" parent="1" source="J86P1lJ72b_8my5_uYd4-36" target="J86P1lJ72b_8my5_uYd4-39">
          <mxGeometry relative="1" as="geometry" />
        </mxCell>
        <mxCell id="J86P1lJ72b_8my5_uYd4-36" value="int i = 0" style="whiteSpace=wrap;html=1;" vertex="1" parent="1">
          <mxGeometry x="-230" y="1260" width="120" height="60" as="geometry" />
        </mxCell>
        <mxCell id="J86P1lJ72b_8my5_uYd4-38" value="F" style="text;html=1;align=center;verticalAlign=middle;resizable=0;points=[];autosize=1;strokeColor=none;fillColor=none;" vertex="1" parent="1">
          <mxGeometry x="95" y="1248" width="30" height="30" as="geometry" />
        </mxCell>
        <mxCell id="J86P1lJ72b_8my5_uYd4-42" value="" style="edgeStyle=orthogonalEdgeStyle;rounded=0;orthogonalLoop=1;jettySize=auto;html=1;" edge="1" parent="1" source="J86P1lJ72b_8my5_uYd4-39" target="J86P1lJ72b_8my5_uYd4-41">
          <mxGeometry relative="1" as="geometry" />
        </mxCell>
        <mxCell id="J86P1lJ72b_8my5_uYd4-71" value="" style="edgeStyle=orthogonalEdgeStyle;rounded=0;orthogonalLoop=1;jettySize=auto;html=1;" edge="1" parent="1" source="J86P1lJ72b_8my5_uYd4-39" target="J86P1lJ72b_8my5_uYd4-70">
          <mxGeometry relative="1" as="geometry" />
        </mxCell>
        <mxCell id="J86P1lJ72b_8my5_uYd4-39" value="i &amp;lt; number -1&amp;nbsp;" style="rhombus;whiteSpace=wrap;html=1;" vertex="1" parent="1">
          <mxGeometry x="-240" y="1390" width="140" height="120" as="geometry" />
        </mxCell>
        <mxCell id="J86P1lJ72b_8my5_uYd4-44" value="" style="edgeStyle=orthogonalEdgeStyle;rounded=0;orthogonalLoop=1;jettySize=auto;html=1;" edge="1" parent="1" source="J86P1lJ72b_8my5_uYd4-41" target="J86P1lJ72b_8my5_uYd4-43">
          <mxGeometry relative="1" as="geometry" />
        </mxCell>
        <mxCell id="J86P1lJ72b_8my5_uYd4-41" value="int j = i + 1" style="whiteSpace=wrap;html=1;" vertex="1" parent="1">
          <mxGeometry x="-230" y="1620" width="120" height="60" as="geometry" />
        </mxCell>
        <mxCell id="J86P1lJ72b_8my5_uYd4-46" value="" style="edgeStyle=orthogonalEdgeStyle;rounded=0;orthogonalLoop=1;jettySize=auto;html=1;" edge="1" parent="1" source="J86P1lJ72b_8my5_uYd4-43" target="J86P1lJ72b_8my5_uYd4-45">
          <mxGeometry relative="1" as="geometry" />
        </mxCell>
        <mxCell id="J86P1lJ72b_8my5_uYd4-51" value="" style="edgeStyle=orthogonalEdgeStyle;rounded=0;orthogonalLoop=1;jettySize=auto;html=1;" edge="1" parent="1" source="J86P1lJ72b_8my5_uYd4-43" target="J86P1lJ72b_8my5_uYd4-50">
          <mxGeometry relative="1" as="geometry" />
        </mxCell>
        <mxCell id="J86P1lJ72b_8my5_uYd4-43" value="j &amp;lt; number" style="rhombus;whiteSpace=wrap;html=1;" vertex="1" parent="1">
          <mxGeometry x="-210" y="1750" width="80" height="80" as="geometry" />
        </mxCell>
        <mxCell id="J86P1lJ72b_8my5_uYd4-45" value="i++" style="whiteSpace=wrap;html=1;" vertex="1" parent="1">
          <mxGeometry x="-70" y="1760" width="120" height="60" as="geometry" />
        </mxCell>
        <mxCell id="J86P1lJ72b_8my5_uYd4-47" value="F" style="text;html=1;align=center;verticalAlign=middle;resizable=0;points=[];autosize=1;strokeColor=none;fillColor=none;" vertex="1" parent="1">
          <mxGeometry x="-135" y="1748" width="30" height="30" as="geometry" />
        </mxCell>
        <mxCell id="J86P1lJ72b_8my5_uYd4-48" value="" style="shape=waypoint;sketch=0;fillStyle=solid;size=6;pointerEvents=1;points=[];fillColor=none;resizable=0;rotatable=0;perimeter=centerPerimeter;snapToPoint=1;" vertex="1" parent="1">
          <mxGeometry x="-180" y="1340" width="20" height="20" as="geometry" />
        </mxCell>
        <mxCell id="J86P1lJ72b_8my5_uYd4-49" style="edgeStyle=orthogonalEdgeStyle;rounded=0;orthogonalLoop=1;jettySize=auto;html=1;exitX=0.5;exitY=0;exitDx=0;exitDy=0;entryX=0.6;entryY=0.75;entryDx=0;entryDy=0;entryPerimeter=0;" edge="1" parent="1" source="J86P1lJ72b_8my5_uYd4-45" target="J86P1lJ72b_8my5_uYd4-48">
          <mxGeometry relative="1" as="geometry">
            <Array as="points">
              <mxPoint x="-10" y="1350" />
            </Array>
          </mxGeometry>
        </mxCell>
        <mxCell id="J86P1lJ72b_8my5_uYd4-54" value="" style="edgeStyle=orthogonalEdgeStyle;rounded=0;orthogonalLoop=1;jettySize=auto;html=1;" edge="1" parent="1" source="J86P1lJ72b_8my5_uYd4-50" target="J86P1lJ72b_8my5_uYd4-53">
          <mxGeometry relative="1" as="geometry" />
        </mxCell>
        <mxCell id="J86P1lJ72b_8my5_uYd4-63" style="edgeStyle=orthogonalEdgeStyle;rounded=0;orthogonalLoop=1;jettySize=auto;html=1;exitX=0;exitY=0.5;exitDx=0;exitDy=0;entryX=-0.05;entryY=0.35;entryDx=0;entryDy=0;entryPerimeter=0;" edge="1" parent="1" source="J86P1lJ72b_8my5_uYd4-50" target="J86P1lJ72b_8my5_uYd4-64">
          <mxGeometry relative="1" as="geometry">
            <mxPoint x="-290" y="2530" as="targetPoint" />
            <Array as="points">
              <mxPoint x="-330" y="1970" />
              <mxPoint x="-330" y="2530" />
            </Array>
          </mxGeometry>
        </mxCell>
        <mxCell id="J86P1lJ72b_8my5_uYd4-50" value="array[ i ] &amp;lt; array[ j ]&amp;nbsp;" style="rhombus;whiteSpace=wrap;html=1;" vertex="1" parent="1">
          <mxGeometry x="-255" y="1910" width="170" height="120" as="geometry" />
        </mxCell>
        <mxCell id="J86P1lJ72b_8my5_uYd4-52" value="T" style="text;html=1;align=center;verticalAlign=middle;resizable=0;points=[];autosize=1;strokeColor=none;fillColor=none;" vertex="1" parent="1">
          <mxGeometry x="-205" y="1828" width="30" height="30" as="geometry" />
        </mxCell>
        <mxCell id="J86P1lJ72b_8my5_uYd4-56" value="" style="edgeStyle=orthogonalEdgeStyle;rounded=0;orthogonalLoop=1;jettySize=auto;html=1;" edge="1" parent="1" source="J86P1lJ72b_8my5_uYd4-53" target="J86P1lJ72b_8my5_uYd4-55">
          <mxGeometry relative="1" as="geometry" />
        </mxCell>
        <mxCell id="J86P1lJ72b_8my5_uYd4-53" value="int temp = array[ i ]" style="whiteSpace=wrap;html=1;" vertex="1" parent="1">
          <mxGeometry x="-230" y="2140" width="120" height="60" as="geometry" />
        </mxCell>
        <mxCell id="J86P1lJ72b_8my5_uYd4-58" value="" style="edgeStyle=orthogonalEdgeStyle;rounded=0;orthogonalLoop=1;jettySize=auto;html=1;" edge="1" parent="1" source="J86P1lJ72b_8my5_uYd4-55" target="J86P1lJ72b_8my5_uYd4-57">
          <mxGeometry relative="1" as="geometry" />
        </mxCell>
        <mxCell id="J86P1lJ72b_8my5_uYd4-55" value="array[ i ] = array[ j ]" style="whiteSpace=wrap;html=1;" vertex="1" parent="1">
          <mxGeometry x="-230" y="2280" width="120" height="60" as="geometry" />
        </mxCell>
        <mxCell id="J86P1lJ72b_8my5_uYd4-60" value="" style="edgeStyle=orthogonalEdgeStyle;rounded=0;orthogonalLoop=1;jettySize=auto;html=1;" edge="1" parent="1" source="J86P1lJ72b_8my5_uYd4-57" target="J86P1lJ72b_8my5_uYd4-59">
          <mxGeometry relative="1" as="geometry" />
        </mxCell>
        <mxCell id="J86P1lJ72b_8my5_uYd4-57" value="array[ j ] = temp" style="whiteSpace=wrap;html=1;" vertex="1" parent="1">
          <mxGeometry x="-230" y="2420" width="120" height="60" as="geometry" />
        </mxCell>
        <mxCell id="J86P1lJ72b_8my5_uYd4-59" value="j++" style="whiteSpace=wrap;html=1;" vertex="1" parent="1">
          <mxGeometry x="-230" y="2560" width="120" height="60" as="geometry" />
        </mxCell>
        <mxCell id="J86P1lJ72b_8my5_uYd4-61" value="" style="shape=waypoint;sketch=0;fillStyle=solid;size=6;pointerEvents=1;points=[];fillColor=none;resizable=0;rotatable=0;perimeter=centerPerimeter;snapToPoint=1;" vertex="1" parent="1">
          <mxGeometry x="-180" y="1700" width="20" height="20" as="geometry" />
        </mxCell>
        <mxCell id="J86P1lJ72b_8my5_uYd4-62" style="edgeStyle=orthogonalEdgeStyle;rounded=0;orthogonalLoop=1;jettySize=auto;html=1;exitX=0.5;exitY=1;exitDx=0;exitDy=0;entryX=0;entryY=0.5;entryDx=0;entryDy=0;entryPerimeter=0;" edge="1" parent="1" source="J86P1lJ72b_8my5_uYd4-59" target="J86P1lJ72b_8my5_uYd4-61">
          <mxGeometry relative="1" as="geometry">
            <Array as="points">
              <mxPoint x="-170" y="2640" />
              <mxPoint x="-490" y="2640" />
              <mxPoint x="-490" y="1710" />
            </Array>
          </mxGeometry>
        </mxCell>
        <mxCell id="J86P1lJ72b_8my5_uYd4-64" value="" style="shape=waypoint;sketch=0;fillStyle=solid;size=6;pointerEvents=1;points=[];fillColor=none;resizable=0;rotatable=0;perimeter=centerPerimeter;snapToPoint=1;" vertex="1" parent="1">
          <mxGeometry x="-180" y="2520" width="20" height="20" as="geometry" />
        </mxCell>
        <mxCell id="J86P1lJ72b_8my5_uYd4-65" value="F" style="text;html=1;align=center;verticalAlign=middle;resizable=0;points=[];autosize=1;strokeColor=none;fillColor=none;" vertex="1" parent="1">
          <mxGeometry x="-295" y="1928" width="30" height="30" as="geometry" />
        </mxCell>
        <mxCell id="J86P1lJ72b_8my5_uYd4-68" value="T" style="text;html=1;align=center;verticalAlign=middle;resizable=0;points=[];autosize=1;strokeColor=none;fillColor=none;" vertex="1" parent="1">
          <mxGeometry x="-135" y="2038" width="30" height="30" as="geometry" />
        </mxCell>
        <mxCell id="J86P1lJ72b_8my5_uYd4-69" value="T" style="text;html=1;align=center;verticalAlign=middle;resizable=0;points=[];autosize=1;strokeColor=none;fillColor=none;" vertex="1" parent="1">
          <mxGeometry x="-135" y="1518" width="30" height="30" as="geometry" />
        </mxCell>
        <mxCell id="J86P1lJ72b_8my5_uYd4-74" value="" style="edgeStyle=orthogonalEdgeStyle;rounded=0;orthogonalLoop=1;jettySize=auto;html=1;" edge="1" parent="1" source="J86P1lJ72b_8my5_uYd4-70" target="J86P1lJ72b_8my5_uYd4-73">
          <mxGeometry relative="1" as="geometry" />
        </mxCell>
        <mxCell id="J86P1lJ72b_8my5_uYd4-77" value="" style="edgeStyle=orthogonalEdgeStyle;rounded=0;orthogonalLoop=1;jettySize=auto;html=1;" edge="1" parent="1" source="J86P1lJ72b_8my5_uYd4-70" target="J86P1lJ72b_8my5_uYd4-76">
          <mxGeometry relative="1" as="geometry" />
        </mxCell>
        <mxCell id="J86P1lJ72b_8my5_uYd4-70" value="number &amp;gt;= 3" style="rhombus;whiteSpace=wrap;html=1;" vertex="1" parent="1">
          <mxGeometry x="-740" y="1518" width="140" height="122" as="geometry" />
        </mxCell>
        <mxCell id="J86P1lJ72b_8my5_uYd4-72" value="F" style="text;html=1;align=center;verticalAlign=middle;resizable=0;points=[];autosize=1;strokeColor=none;fillColor=none;" vertex="1" parent="1">
          <mxGeometry x="-285" y="1408" width="30" height="30" as="geometry" />
        </mxCell>
        <mxCell id="J86P1lJ72b_8my5_uYd4-81" style="edgeStyle=orthogonalEdgeStyle;rounded=0;orthogonalLoop=1;jettySize=auto;html=1;exitX=0.5;exitY=1;exitDx=0;exitDy=0;entryX=0.5;entryY=0;entryDx=0;entryDy=0;" edge="1" parent="1" source="J86P1lJ72b_8my5_uYd4-73" target="J86P1lJ72b_8my5_uYd4-80">
          <mxGeometry relative="1" as="geometry" />
        </mxCell>
        <mxCell id="J86P1lJ72b_8my5_uYd4-73" value="แสดงคำว่า&amp;nbsp;The large 3rd element =" style="shape=parallelogram;perimeter=parallelogramPerimeter;whiteSpace=wrap;html=1;fixedSize=1;" vertex="1" parent="1">
          <mxGeometry x="-775" y="1754" width="210" height="60" as="geometry" />
        </mxCell>
        <mxCell id="J86P1lJ72b_8my5_uYd4-75" value="T" style="text;html=1;align=center;verticalAlign=middle;resizable=0;points=[];autosize=1;strokeColor=none;fillColor=none;" vertex="1" parent="1">
          <mxGeometry x="-655" y="1648" width="30" height="30" as="geometry" />
        </mxCell>
        <mxCell id="J86P1lJ72b_8my5_uYd4-76" value="Array does not have enough elements for 3 rd largest." style="shape=parallelogram;perimeter=parallelogramPerimeter;whiteSpace=wrap;html=1;fixedSize=1;" vertex="1" parent="1">
          <mxGeometry x="-1180" y="1549" width="350" height="60" as="geometry" />
        </mxCell>
        <mxCell id="J86P1lJ72b_8my5_uYd4-79" value="F" style="text;html=1;align=center;verticalAlign=middle;resizable=0;points=[];autosize=1;strokeColor=none;fillColor=none;" vertex="1" parent="1">
          <mxGeometry x="-775" y="1518" width="30" height="30" as="geometry" />
        </mxCell>
        <mxCell id="J86P1lJ72b_8my5_uYd4-80" value="end" style="ellipse;whiteSpace=wrap;html=1;" vertex="1" parent="1">
          <mxGeometry x="-1120" y="2160" width="120" height="80" as="geometry" />
        </mxCell>
        <mxCell id="J86P1lJ72b_8my5_uYd4-82" value="" style="shape=waypoint;sketch=0;fillStyle=solid;size=6;pointerEvents=1;points=[];fillColor=none;resizable=0;rotatable=0;perimeter=centerPerimeter;snapToPoint=1;" vertex="1" parent="1">
          <mxGeometry x="-1070" y="1980" width="20" height="20" as="geometry" />
        </mxCell>
        <mxCell id="J86P1lJ72b_8my5_uYd4-83" style="edgeStyle=orthogonalEdgeStyle;rounded=0;orthogonalLoop=1;jettySize=auto;html=1;exitX=0.5;exitY=1;exitDx=0;exitDy=0;entryX=0.517;entryY=0.256;entryDx=0;entryDy=0;entryPerimeter=0;" edge="1" parent="1" source="J86P1lJ72b_8my5_uYd4-76" target="J86P1lJ72b_8my5_uYd4-82">
          <mxGeometry relative="1" as="geometry">
            <Array as="points">
              <mxPoint x="-1060" y="1609" />
            </Array>
          </mxGeometry>
        </mxCell>
      </root>
    </mxGraphModel>
  </diagram>
</mxfile>
